<?xml version="1.0" standalone="no"?>
<!DOCTYPE svg PUBLIC "-//W3C//DTD SVG 20010904//EN"
 "http://www.w3.org/TR/2001/REC-SVG-20010904/DTD/svg10.dtd">
<svg version="1.0" xmlns="http://www.w3.org/2000/svg"
 width="512.000000pt" height="512.000000pt" viewBox="0 0 512.000000 512.000000"
 preserveAspectRatio="xMidYMid meet">

<g transform="translate(0.000000,512.000000) scale(0.100000,-0.100000)"
fill="#000000" stroke="none">
<path d="M2455 4794 c-356 -34 -641 -166 -880 -409 -411 -419 -508 -1032 -246
-1565 244 -498 794 -804 1346 -750 398 39 736 228 972 544 403 538 355 1283
-114 1767 -248 256 -564 396 -928 412 -60 3 -128 3 -150 1z m288 -375 c211
-43 365 -126 518 -278 152 -153 235 -307 278 -518 95 -464 -165 -943 -610
-1124 -343 -140 -743 -75 -1028 165 -391 332 -470 898 -186 1326 118 177 296
317 505 394 150 56 355 70 523 35z"/>
<path d="M1560 1814 c-14 -2 -59 -9 -100 -15 -561 -80 -1065 -461 -1302 -984
-66 -146 -117 -310 -133 -430 -3 -27 -9 -60 -12 -72 l-5 -23 184 0 185 0 11
69 c16 94 63 234 114 339 188 383 535 648 968 739 78 17 162 18 1090 18 947 0
1010 -1 1095 -19 419 -88 749 -334 948 -706 53 -98 112 -268 128 -370 l12 -70
185 0 184 0 -5 23 c-3 12 -9 45 -12 72 -25 184 -128 456 -240 631 -238 372
-612 645 -1025 749 -196 50 -150 48 -1230 50 -558 2 -1026 1 -1040 -1z"/>
</g>
</svg>
